<mxfile host="" modified="2020-07-18T01:08:10.168Z" agent="5.0 (Windows NT 10.0; Win64; x64) AppleWebKit/537.36 (KHTML, like Gecko) Code/1.46.1 Chrome/78.0.3904.130 Electron/7.3.1 Safari/537.36" etag="Q1lx3GanBNmdgz484dun" version="13.1.3">
    <diagram id="6hGFLwfOUW9BJ-s0fimq" name="Page-1">
        <mxGraphModel dx="965" dy="207" grid="1" gridSize="10" guides="1" tooltips="1" connect="1" arrows="1" fold="1" page="0" pageScale="1" pageWidth="827" pageHeight="1169" math="0" shadow="0">
            <root>
                <mxCell id="0"/>
                <mxCell id="1" parent="0"/>
                <mxCell id="6" value="" style="rhombus;whiteSpace=wrap;html=1;fillColor=#ffaa44;strokeColor=#d79b00;" parent="1" vertex="1">
                    <mxGeometry x="230" y="60" width="90" height="90" as="geometry"/>
                </mxCell>
                <mxCell id="7" value="" style="rhombus;whiteSpace=wrap;html=1;fillColor=#8899ff;" parent="1" vertex="1">
                    <mxGeometry x="-10" y="70" width="90" height="90" as="geometry"/>
                </mxCell>
                <mxCell id="8" value="" style="rhombus;whiteSpace=wrap;html=1;fillColor=#88cc66;" parent="1" vertex="1">
                    <mxGeometry x="100" y="30" width="90" height="90" as="geometry"/>
                </mxCell>
                <mxCell id="9" value="" style="rhombus;whiteSpace=wrap;html=1;fillColor=#ff5588;direction=south;" parent="1" vertex="1">
                    <mxGeometry x="100" y="140" width="90" height="90" as="geometry"/>
                </mxCell>
            </root>
        </mxGraphModel>
    </diagram>
</mxfile>